<svg xmlns="http://www.w3.org/2000/svg" viewBox="0 0 16 16" shape-rendering="crispEdges" role="img" aria-label="Chiptune 8-Bit Player"><title>Chiptune 8-Bit Player</title><rect x="1" y="1" width="14" height="1" fill="#2b2b2b"/><rect x="1" y="2" width="1" height="1" fill="#2b2b2b"/><rect x="2" y="2" width="12" height="1" fill="#4a4a4a"/><rect x="14" y="2" width="1" height="1" fill="#2b2b2b"/><rect x="1" y="3" width="1" height="1" fill="#2b2b2b"/><rect x="2" y="3" width="1" height="1" fill="#4a4a4a"/><rect x="3" y="3" width="10" height="1" fill="#f0e6c4"/><rect x="13" y="3" width="1" height="1" fill="#4a4a4a"/><rect x="14" y="3" width="1" height="1" fill="#2b2b2b"/><rect x="1" y="4" width="1" height="1" fill="#2b2b2b"/><rect x="2" y="4" width="1" height="1" fill="#4a4a4a"/><rect x="3" y="4" width="1" height="1" fill="#f0e6c4"/><rect x="4" y="4" width="1" height="1" fill="#e52521"/><rect x="5" y="4" width="1" height="1" fill="#f9a03f"/><rect x="6" y="4" width="1" height="1" fill="#4ee2ec"/><rect x="7" y="4" width="6" height="1" fill="#f0e6c4"/><rect x="13" y="4" width="1" height="1" fill="#4a4a4a"/><rect x="14" y="4" width="1" height="1" fill="#2b2b2b"/><rect x="1" y="5" width="1" height="1" fill="#2b2b2b"/><rect x="2" y="5" width="1" height="1" fill="#4a4a4a"/><rect x="3" y="5" width="10" height="1" fill="#f0e6c4"/><rect x="13" y="5" width="1" height="1" fill="#4a4a4a"/><rect x="14" y="5" width="1" height="1" fill="#2b2b2b"/><rect x="1" y="6" width="1" height="1" fill="#2b2b2b"/><rect x="2" y="6" width="12" height="1" fill="#4a4a4a"/><rect x="14" y="6" width="1" height="1" fill="#2b2b2b"/><rect x="1" y="7" width="1" height="1" fill="#2b2b2b"/><rect x="2" y="7" width="1" height="1" fill="#4a4a4a"/><rect x="3" y="7" width="4" height="1" fill="#181818"/><rect x="7" y="7" width="2" height="1" fill="#4a4a4a"/><rect x="9" y="7" width="4" height="1" fill="#181818"/><rect x="13" y="7" width="1" height="1" fill="#4a4a4a"/><rect x="14" y="7" width="1" height="1" fill="#2b2b2b"/><rect x="1" y="8" width="1" height="1" fill="#2b2b2b"/><rect x="2" y="8" width="1" height="1" fill="#4a4a4a"/><rect x="3" y="8" width="1" height="1" fill="#181818"/><rect x="4" y="8" width="2" height="1" fill="#f0e6c4"/><rect x="6" y="8" width="1" height="1" fill="#181818"/><rect x="7" y="8" width="2" height="1" fill="#4a4a4a"/><rect x="9" y="8" width="1" height="1" fill="#181818"/><rect x="10" y="8" width="2" height="1" fill="#f0e6c4"/><rect x="12" y="8" width="1" height="1" fill="#181818"/><rect x="13" y="8" width="1" height="1" fill="#4a4a4a"/><rect x="14" y="8" width="1" height="1" fill="#2b2b2b"/><rect x="1" y="9" width="1" height="1" fill="#2b2b2b"/><rect x="2" y="9" width="1" height="1" fill="#4a4a4a"/><rect x="3" y="9" width="4" height="1" fill="#181818"/><rect x="7" y="9" width="2" height="1" fill="#4a4a4a"/><rect x="9" y="9" width="4" height="1" fill="#181818"/><rect x="13" y="9" width="1" height="1" fill="#4a4a4a"/><rect x="14" y="9" width="1" height="1" fill="#2b2b2b"/><rect x="1" y="10" width="1" height="1" fill="#2b2b2b"/><rect x="2" y="10" width="12" height="1" fill="#4a4a4a"/><rect x="14" y="10" width="1" height="1" fill="#2b2b2b"/><rect x="1" y="11" width="14" height="1" fill="#2b2b2b"/></svg>
